<svg width="33" height="33" viewBox="0 0 33 33" fill="none" xmlns="http://www.w3.org/2000/svg">
<path d="M16.375 20.5C18.6532 20.5 20.5 18.6532 20.5 16.375C20.5 14.0968 18.6532 12.25 16.375 12.25C14.0968 12.25 12.25 14.0968 12.25 16.375C12.25 18.6532 14.0968 20.5 16.375 20.5Z" stroke="#B3B3B3" stroke-width="2.5" stroke-linecap="round" stroke-linejoin="round"/>
<path d="M26.55 20.5C26.367 20.9147 26.3124 21.3748 26.3932 21.8208C26.4741 22.2669 26.6868 22.6784 27.0037 23.0025L27.0863 23.085C27.3419 23.3404 27.5448 23.6437 27.6832 23.9775C27.8216 24.3114 27.8928 24.6692 27.8928 25.0306C27.8928 25.392 27.8216 25.7499 27.6832 26.0837C27.5448 26.4176 27.3419 26.7208 27.0863 26.9762C26.8308 27.2319 26.5276 27.4348 26.1937 27.5732C25.8599 27.7116 25.502 27.7828 25.1406 27.7828C24.7792 27.7828 24.4214 27.7116 24.0875 27.5732C23.7537 27.4348 23.4504 27.2319 23.195 26.9762L23.1125 26.8937C22.7884 26.5768 22.3769 26.3641 21.9308 26.2832C21.4848 26.2024 21.0247 26.257 20.61 26.44C20.2033 26.6143 19.8565 26.9037 19.6122 27.2726C19.3679 27.6415 19.2368 28.0738 19.235 28.5163V28.75C19.235 29.4793 18.9453 30.1788 18.4295 30.6945C17.9138 31.2103 17.2143 31.5 16.485 31.5C15.7557 31.5 15.0562 31.2103 14.5405 30.6945C14.0247 30.1788 13.735 29.4793 13.735 28.75V28.6262C13.7244 28.1711 13.577 27.7297 13.3122 27.3595C13.0474 26.9892 12.6773 26.7071 12.25 26.55C11.8353 26.367 11.3752 26.3124 10.9292 26.3932C10.4831 26.4741 10.0716 26.6868 9.7475 27.0037L9.665 27.0863C9.4096 27.3419 9.10631 27.5448 8.77246 27.6832C8.43862 27.8216 8.08077 27.8928 7.71937 27.8928C7.35798 27.8928 7.00013 27.8216 6.66629 27.6832C6.33244 27.5448 6.02915 27.3419 5.77375 27.0863C5.51806 26.8308 5.31523 26.5276 5.17684 26.1937C5.03844 25.8599 4.96721 25.502 4.96721 25.1406C4.96721 24.7792 5.03844 24.4214 5.17684 24.0875C5.31523 23.7537 5.51806 23.4504 5.77375 23.195L5.85625 23.1125C6.17324 22.7884 6.38588 22.3769 6.46676 21.9308C6.54763 21.4848 6.49303 21.0247 6.31 20.61C6.1357 20.2033 5.84629 19.8565 5.47739 19.6122C5.10849 19.3679 4.67621 19.2368 4.23375 19.235H4C3.27065 19.235 2.57118 18.9453 2.05546 18.4295C1.53973 17.9138 1.25 17.2143 1.25 16.485C1.25 15.7557 1.53973 15.0562 2.05546 14.5405C2.57118 14.0247 3.27065 13.735 4 13.735H4.12375C4.57887 13.7244 5.02026 13.577 5.39054 13.3122C5.76082 13.0474 6.04286 12.6773 6.2 12.25C6.38303 11.8353 6.43763 11.3752 6.35676 10.9292C6.27588 10.4831 6.06324 10.0716 5.74625 9.7475L5.66375 9.665C5.40806 9.4096 5.20523 9.10631 5.06684 8.77246C4.92844 8.43862 4.85721 8.08077 4.85721 7.71937C4.85721 7.35798 4.92844 7.00013 5.06684 6.66629C5.20523 6.33244 5.40806 6.02915 5.66375 5.77375C5.91915 5.51806 6.22244 5.31523 6.55629 5.17684C6.89013 5.03844 7.24798 4.96721 7.60938 4.96721C7.97077 4.96721 8.32862 5.03844 8.66246 5.17684C8.99631 5.31523 9.2996 5.51806 9.555 5.77375L9.6375 5.85625C9.96156 6.17324 10.3731 6.38588 10.8192 6.46676C11.2652 6.54763 11.7253 6.49303 12.14 6.31H12.25C12.6567 6.1357 13.0035 5.84629 13.2478 5.47739C13.4921 5.10849 13.6232 4.67621 13.625 4.23375V4C13.625 3.27065 13.9147 2.57118 14.4305 2.05546C14.9462 1.53973 15.6457 1.25 16.375 1.25C17.1043 1.25 17.8038 1.53973 18.3195 2.05546C18.8353 2.57118 19.125 3.27065 19.125 4V4.12375C19.1268 4.56621 19.2579 4.99849 19.5022 5.36739C19.7465 5.73629 20.0933 6.0257 20.5 6.2C20.9147 6.38303 21.3748 6.43763 21.8208 6.35676C22.2669 6.27588 22.6784 6.06324 23.0025 5.74625L23.085 5.66375C23.3404 5.40806 23.6437 5.20523 23.9775 5.06684C24.3114 4.92844 24.6692 4.85721 25.0306 4.85721C25.392 4.85721 25.7499 4.92844 26.0837 5.06684C26.4176 5.20523 26.7208 5.40806 26.9762 5.66375C27.2319 5.91915 27.4348 6.22244 27.5732 6.55629C27.7116 6.89013 27.7828 7.24798 27.7828 7.60938C27.7828 7.97077 27.7116 8.32862 27.5732 8.66246C27.4348 8.99631 27.2319 9.2996 26.9762 9.555L26.8937 9.6375C26.5768 9.96156 26.3641 10.3731 26.2832 10.8192C26.2024 11.2652 26.257 11.7253 26.44 12.14V12.25C26.6143 12.6567 26.9037 13.0035 27.2726 13.2478C27.6415 13.4921 28.0738 13.6232 28.5163 13.625H28.75C29.4793 13.625 30.1788 13.9147 30.6945 14.4305C31.2103 14.9462 31.5 15.6457 31.5 16.375C31.5 17.1043 31.2103 17.8038 30.6945 18.3195C30.1788 18.8353 29.4793 19.125 28.75 19.125H28.6262C28.1838 19.1268 27.7515 19.2579 27.3826 19.5022C27.0137 19.7465 26.7243 20.0933 26.55 20.5Z" stroke="#B3B3B3" stroke-width="2.5" stroke-linecap="round" stroke-linejoin="round"/>
</svg>
